<svg width="606" height="514" viewBox="0 0 606 514" fill="none" xmlns="http://www.w3.org/2000/svg">
<path d="M538.379 174.869C476.212 150.366 413.411 152.982 397.483 181.672C381.404 210.6 404.817 279.077 449.009 335.938C493.201 392.76 555.661 390.903 590.132 328.841C624.044 266.958 600.375 199.287 538.369 174.86" fill="#FF9700"/>
<path d="M222.212 194.681C277.376 232.355 339.164 243.744 361.051 219.307C383.138 194.681 375.52 122.737 345.057 57.5095C314.595 -7.67965 253.3 -19.732 205.933 33.1204C159.145 85.916 167.208 157.122 222.221 194.681" fill="#006ECD"/>
<path d="M419.911 392.997C411.071 326.756 378.249 273.165 345.427 273.212C312.33 273.24 263.884 327.002 235.714 393.281C207.563 459.532 239.571 513.208 310.568 513.123C381.139 512.649 428.733 459.048 419.911 392.997" fill="#EF151E"/>
<path d="M168.099 220.796C156.852 220.796 149.281 227.732 149.281 238.06V248.454H176.001C176.001 248.454 176.892 336.63 175.887 345.868C174.873 355.106 172.533 370.143 156.008 378.027C141.748 384.83 141.464 391.264 140.554 396.987C139.37 404.406 140.763 405.353 146.173 404.027C167.407 398.825 190.005 390.307 201.432 369.31C207.639 357.911 210.121 345.574 210.121 326.833V248.444C221.434 248.321 229.602 241.092 229.602 231.181V220.796H168.099V220.796Z" fill="black"/>
<path d="M138.394 339.69C138.394 339.69 116.952 370.437 75.3276 370.437C33.7032 370.437 0 337.558 0 293.944C0 250.33 32.3672 216.418 75.3276 216.418C118.288 216.418 137.854 247.155 137.854 247.155C137.854 247.155 126.408 259.407 115.417 259.407C110.054 259.407 106.046 256.924 101.413 254.072C95.2065 250.235 88.1759 245.895 75.3276 245.895C50.9006 245.895 31.0406 267.442 31.0406 293.944C31.0406 320.446 50.9006 340.988 75.3276 340.988C89.8246 340.988 96.6277 336.828 102.644 333.171C106.918 330.556 110.954 328.102 116.791 328.102C129.165 328.102 138.394 339.709 138.394 339.709V339.69Z" fill="black"/>
</svg>
